<?xml version="1.0"?>
<svg xmlns="http://www.w3.org/2000/svg" version="1.2" baseProfile="tiny" width="800" height="647" viewBox="0 0 800 647" stroke-linecap="round" stroke-linejoin="round">
<g id="StHimark">
<path d="M 131.7371 211.1299 110.0836 210.8925 111.5106 254.8105 84.0816 264.6405 56.177 333.7678 23.1989 330.5969 27.6382 302.6923 47.2983 297.6187 54.5102 260.008 38.259 229.8837 1 226.7127 1 213.6325 27.5569 211.6506 19.6295 194.6066 8.9274 148.2311 17.2513 126.0342 37.8626 107.8011 57.2848 99.0809 79.9034 86.2194 97.4072 81.9576 121.9125 84.2407 131.7984 83.0688 131.7371 211.1299 Z"/>
<path d="M 131.7371 211.1299 131.7984 83.0688 140.0602 76.1687 154.5199 78.1982 154.2662 92.9115 174.8141 88.8526 182.4245 80.9886 195.1591 77.6908 221.7953 72.5158 232.1454 81.9526 247.6198 79.327 266.2651 74.5071 269.1761 80.1515 273.1144 88.5609 274.0661 174.6168 271.1057 174.145 251.2871 176.9988 242.7254 174.7792 220.922 169.4288 198.7251 169.7459 189.6878 183.064 188.2609 195.2722 182.4897 204.0136 178.748 210.1653 169.235 216.0633 161.612 215.9872 131.9634 214.222 131.7371 211.1299 Z"/>
<path d="M 266.2651 74.5071 266.3901 46.0913 282.4035 33.5659 303.9662 33.2488 328.4144 16.728 367.9882 1 370.0176 38.037 380.6721 43.6179 405.0252 33.9782 419.7386 54.2724 434.9592 81.1623 450.1799 79.1329 447.6432 59.346 436.9887 46.6621 443.0769 31.9487 440.5402 14.1913 484.1728 11.1471 485.1875 31.4414 495.3346 43.1106 497.7091 48.4256 478.7009 111.3433 474.8957 134.1744 458.9582 156.6333 444.6888 182.128 402.2611 182.128 381.3327 189.1676 373.1516 189.5481 357.5504 184.4111 333.2625 184.6581 312.7146 177.2 294.4498 179.6353 274.0661 174.6168 273.1144 88.5609 266.2651 74.5071 Z"/>
<path d="M 495.3346 43.1106 501.5977 29.0166 508.3519 30.824 512.6098 50.6768 558.589 103.7906 548.2833 110.1326 553.8325 117.2673 576.8221 113.3036 607.4419 83.9044 614.0375 91.2611 594.2506 119.1657 610.2323 135.4011 597.8021 143.5188 617.0816 170.916 617.589 199.328 615.2213 208.9678 624.7343 224.8226 631.7104 241.3117 657.7124 248.2879 641.8575 260.9718 641.8406 267.7281 617.7919 274.5774 405.9641 272.6376 406.2644 233.0961 427.4465 210.8993 444.6888 182.128 458.9582 156.6333 474.8957 134.1744 478.7009 111.3433 497.7091 48.4256 495.3346 43.1106 Z"/>
<path d="M 161.612 215.9872 161.1681 270.75 170.9982 270.9086 171.4738 302.6184 242.139 302.1966 242.3927 306.7628 259.1355 324.774 293.8894 364.3478 310.8858 390.984 329.658 413.5613 332.1948 422.9474 318.7904 423.2451 268.4852 414.9236 216.4812 385.4335 188.2595 380.0428 124.174 332.9063 111.4267 299.8013 119.7981 255.0905 111.5106 254.8105 110.0836 210.8925 131.7371 211.1299 131.9634 214.222 161.612 215.9872 Z"/>
<path d="M 242.139 302.1966 171.4738 302.6184 170.9982 270.9086 161.1681 270.75 161.612 215.9872 169.235 216.0633 178.748 210.1653 188.2609 195.2722 189.6878 183.064 198.7251 169.7459 220.922 169.4288 242.7254 174.7792 242.139 302.1966 Z"/>
<path d="M 799 511.2078 747.0753 511.2078 745.9126 263.0947 784.5014 238.2316 798.961 247.364 799 511.2078 Z"/>
<path d="M 799 511.2078 798.9207 528.7676 701.5083 558.0674 529.7602 633.8406 521.3571 625.2789 521.8328 602.1308 550.8472 602.2893 575.2637 582.4707 588.2647 575.8117 601.4243 575.8117 701.754 519.4951 711.7868 520.3914 711.4697 511.8297 717.9702 500.5728 747.0225 499.9399 747.0753 511.2078 799 511.2078 Z"/>
<path d="M 529.7602 633.8406 523.6765 644.5027 490.6984 646.2784 446.5584 623.9548 410.3101 615.1672 398.8946 600.8978 385.8936 559.0409 344.0367 518.4524 314.5466 501.6462 322.157 482.6204 323.7425 456.3013 319.9373 441.3977 330.391 437.1116 407.3886 438.6742 407.693 466.9847 562.8798 467.1936 561.2032 537.9097 555.6223 544.3785 539.8942 549.5789 529.2397 553.1304 523.1515 559.5992 521.8328 602.1308 521.3571 625.2789 529.7602 633.8406 Z"/>
<path d="M 562.8798 467.1936 560.8871 426.9566 623.2531 427.6519 624.8623 562.6556 601.4243 575.8117 588.2647 575.8117 575.2637 582.4707 550.8472 602.2893 521.8328 602.1308 523.1515 559.5992 529.2397 553.1304 555.6223 544.3785 561.2032 537.9097 562.8798 467.1936 Z"/>
<path d="M 624.8623 562.6556 623.2531 427.6519 746.6816 427.1953 747.0225 499.9399 717.9702 500.5728 711.4697 511.8297 711.7868 520.3914 701.754 519.4951 624.8623 562.6556 Z"/>
<path d="M 746.6816 427.1953 623.2531 427.6519 621.7792 296.2584 604.4294 274.455 617.7919 274.5774 641.8406 267.7281 648.7706 275.0002 691.8959 319.711 721.7031 326.6871 734.387 315.5887 734.387 293.0747 745.9847 278.4919 746.6816 427.1953 Z"/>
<path d="M 604.4294 274.455 621.7792 296.2584 623.2531 427.6519 560.8871 426.9566 562.8798 467.1936 478.1146 467.0795 478.4317 448.0884 482.2369 443.9661 493.0182 443.649 499.9943 437.6241 498.7919 345.7444 517.4373 315.6835 517.8193 273.6619 604.4294 274.455 Z"/>
<path d="M 405.9641 272.6376 314.0975 272.7145 313.736 186.0993 312.7146 177.2 333.2625 184.6581 357.5504 184.4111 373.1516 189.5481 381.3327 189.1676 402.2611 182.128 444.6888 182.128 427.4465 210.8993 406.2644 233.0961 405.9641 272.6376 Z"/>
<path d="M 312.7146 177.2 313.736 186.0993 314.0975 272.7145 242.2786 271.8731 242.7254 174.7792 251.2871 176.9988 271.1057 174.145 294.4498 179.6353 312.7146 177.2 Z"/>
<path d="M 314.0975 272.7145 313.0553 393.5933 310.8858 390.984 293.8894 364.3478 259.1355 324.774 242.3927 306.7628 242.2786 271.8731 314.0975 272.7145 Z"/>
<path d="M 318.7904 423.2451 332.1948 422.9474 329.658 413.5613 322.9908 405.5427 414.7167 405.5778 441.966 388.1163 481.5398 377.5886 487.7549 383.5501 499.2951 384.1943 499.9943 437.6241 493.0182 443.649 482.2369 443.9661 478.4317 448.0884 478.1146 467.0795 407.693 466.9847 407.3886 438.6742 330.391 437.1116 319.9373 441.3977 312.3572 422.1809 318.7904 423.2451 Z"/>
<path d="M 404.9663 405.5741 405.9641 272.6376 517.8193 273.6619 517.4373 315.6835 498.7919 345.7444 499.2951 384.1943 487.7549 383.5501 481.5398 377.5886 441.966 388.1163 414.7167 405.5778 404.9663 405.5741 Z"/>
<path d="M 405.9641 272.6376 404.9663 405.5741 322.9908 405.5427 313.0553 393.5933 314.0975 272.7145 405.9641 272.6376 Z"/>
</g>
</svg>